<?xml version="1.0" encoding="UTF-8" standalone="no"?>
<!-- Created with Inkscape (http://www.inkscape.org/) -->

<svg
   xmlns:dc="http://purl.org/dc/elements/1.1/"
   xmlns:cc="http://creativecommons.org/ns#"
   xmlns:rdf="http://www.w3.org/1999/02/22-rdf-syntax-ns#"
   xmlns:svg="http://www.w3.org/2000/svg"
   xmlns="http://www.w3.org/2000/svg"
   xmlns:sodipodi="http://sodipodi.sourceforge.net/DTD/sodipodi-0.dtd"
   xmlns:inkscape="http://www.inkscape.org/namespaces/inkscape"
   width="700"
   height="700"
   viewBox="0 0 421.75815 421.75813"
   version="1.1"
   id="svg16355"
   inkscape:version="0.92.4 (5da689c313, 2019-01-14)"
   sodipodi:docname="atletico-madrid-logo.svg"
   inkscape:export-filename="C:\Users\suitedoalex\sites\atletico-madrid-logo-0.png"
   inkscape:export-xdpi="561.73712"
   inkscape:export-ydpi="561.73712">
  <defs
     id="defs16349">
    <clipPath
       clipPathUnits="userSpaceOnUse"
       id="clipPath248">
      <path
         d="m 694.978,98.614 h 26.687 v 35.621 h -26.687 z"
         id="path246"
         inkscape:connector-curvature="0" />
    </clipPath>
  </defs>
  <sodipodi:namedview
     id="base"
     pagecolor="#ffffff"
     bordercolor="#666666"
     borderopacity="1.0"
     inkscape:pageopacity="0.0"
     inkscape:pageshadow="2"
     inkscape:zoom="0.49497475"
     inkscape:cx="-100.10215"
     inkscape:cy="321.40889"
     inkscape:document-units="mm"
     inkscape:current-layer="layer1"
     showgrid="false"
     fit-margin-top="0"
     fit-margin-left="0"
     fit-margin-right="0"
     fit-margin-bottom="0"
     inkscape:window-width="1600"
     inkscape:window-height="837"
     inkscape:window-x="-8"
     inkscape:window-y="-8"
     inkscape:window-maximized="1" />
  <metadata
     id="metadata16352">
    <rdf:RDF>
      <cc:Work
         rdf:about="">
        <dc:format>image/svg+xml</dc:format>
        <dc:type
           rdf:resource="http://purl.org/dc/dcmitype/StillImage" />
        <dc:title></dc:title>
      </cc:Work>
    </rdf:RDF>
  </metadata>
  <g
     inkscape:label="Layer 1"
     inkscape:groupmode="layer"
     id="layer1"
     transform="translate(267.66758,252.82239)">
    <path
       inkscape:connector-curvature="0"
       id="path260"
       style="fill:#ffffff;fill-opacity:1;fill-rule:nonzero;stroke:none;stroke-width:8.72611237"
       d="m 56.842618,-163.98539 c 0,-11.87623 -8.019296,-15.48012 -19.502864,-18.47317 -16.797758,-4.38051 -51.361883,-11.73663 -94.128572,-11.73663 -42.766667,0 -77.339522,7.34738 -94.137292,11.7279 -11.47484,3.00178 -19.49413,6.59694 -19.49413,18.4819 v 166.214989 0.06109 0.06109 c 0.14834,13.822162 6.71038,26.946234 17.55693,35.122597 l 89.233228,67.653544 6.841264,5.18331 6.849996,-5.18331 89.259411,-67.670998 C 50.280579,29.193287 56.842618,16.016863 56.842618,2.229606 Z"
       inkscape:export-filename="C:\Users\suitedoalex\sites\atletico-madrid-logo-4.png"
       inkscape:export-xdpi="101.80452"
       inkscape:export-ydpi="101.80452" />
    <path
       style="fill:#262f61;fill-opacity:1;fill-rule:nonzero;stroke:none;stroke-width:8.72611237"
       d="m -56.787948,-194.19787 c -42.766667,0 -77.339432,7.356 -94.137212,11.73651 -11.47483,2.99305 -19.49396,6.58814 -19.49396,18.4731 v 166.215586 0.06057 0.0613 c 0.13966,13.822164 6.70132,26.946305 17.55661,35.12269 l 89.233617,67.653464 6.840945,5.18306 6.849699,-5.18306 89.259902,-67.670985 C 50.281641,29.190732 56.843222,16.013889 56.843222,2.235356 V -163.98826 c 0,-11.87624 -8.01914,-15.48005 -19.502708,-18.4731 -16.797758,-4.38051 -51.361773,-11.73651 -94.128462,-11.73651 z m -2.486822,8.57763 2.696246,8.33392 h 8.760787 l -7.085389,5.14803 2.705001,8.32516 -7.076645,-5.14877 -7.094143,5.14877 2.705,-8.32516 -7.085399,-5.14803 h 8.760786 z m -94.63487,12.1466 2.705,8.33391 h 8.76152 l -7.08613,5.14804 2.705,8.32516 -7.08539,-5.14877 -7.08538,5.14877 2.705,-8.32516 -7.0854,-5.14804 h 8.76078 z m 187.244828,0 2.704999,8.33391 h 8.761518 l -7.086124,5.14804 2.704999,8.32516 -7.085392,-5.14877 -7.085391,5.14877 2.704999,-8.32516 -7.085393,-5.14804 h 8.760783 z m -41.2828099,13.97961 c 0.8289771,0.11344 1.6490231,0.22663 2.4605454,0.34879 2.4258565,0.34032 4.7735458,0.70689 7.042342,1.0734 2.28625,0.37522 4.502296,0.75951 6.614009,1.15219 l -59.6865955,45.31441 v -31.03855 c 9.398025,5.57598 15.742174,5.0084 19.834728,2.40802 2.338593,-1.48344 3.943863,-3.63882 4.947367,-5.68072 10.183371,2.99305 21.4839718,-3.32436 18.7876041,-13.57754 z m -109.3470981,1.77973 c 0.0785,0.87262 0.25332,1.70224 0.49766,2.49632 0.009,0.0349 0.017,0.0695 0.0256,0.10439 0.009,0.0349 0.0263,0.0614 0.035,0.0964 2.60909,7.93203 13.22034,12.04173 22.99358,9.16212 1.823758,3.69987 6.195182,6.94605 12.294731,7.79248 4.101277,0.56719 8.988251,0.0347 14.398451,-2.18181 v 40.437088 l -37.356292,28.368571 c 0.12214,-0.89879 0.20066,-1.858503 0.20066,-2.896913 v -0.323257 -0.575735 -0.261962 c 4.08383,-2.521846 7.687112,-7.434598 9.493416,-13.647592 0.8028,-2.757449 1.134585,-5.488227 1.108408,-8.053706 -0.750447,0.331595 -1.54446,0.558008 -2.294906,0.706353 -1.980841,0.383948 -3.682097,0.270718 -3.69083,0.270718 3.272288,-0.253058 5.645218,-1.500617 7.189744,-2.652461 0.453748,-0.383952 0.951161,-0.846843 1.474728,-1.379134 3.228645,-3.29847 5.358221,-7.12928 6.623491,-11.57086 l 6.143347,-21.48385 c -3.211213,-0.29669 -6.309162,1.23097 -8.036924,3.95352 l -2.966956,4.67665 -2.90567,4.59858 c -0.654462,1.09948 -1.823748,2.09453 -3.150127,2.81007 -2.041916,-1.59688 -3.630238,-2.85364 -4.886801,-3.83969 -0.19198,-0.14834 -0.37493,-0.29674 -0.54946,-0.43636 l -1.93736,-8.13251 2.818839,-5.02617 c 0.811523,-1.45727 1.07318,-3.12429 0.802669,-4.72117 -0.174515,-0.97733 -0.550009,-1.9367 -1.125928,-2.80059 -0.46249,-0.68064 -1.42243,-0.83761 -2.12051,-0.39259 l -7.07664,4.51978 c -0.20069,-0.2007 -0.39253,-0.35799 -0.59324,-0.48015 -0.44503,-0.27923 -0.89924,-0.34852 -1.38789,-0.26999 -0.71555,0.12217 -1.50934,0.58449 -2.44304,1.21276 l -1.80674,1.31785 -2.68748,1.96289 -2.05922,-0.0781 -1.43094,-0.0613 c -1.39619,0 -1.95477,2.51295 -0.66331,4.36289 1.07331,1.53579 1.91966,3.52548 2.49558,5.92516 0.009,0.0349 0.0263,0.0701 0.035,0.10506 0.0349,0.17452 0.0695,0.34867 0.11311,0.5232 0.0261,0.13961 0.0614,0.27047 0.0875,0.41009 0.45377,2.23389 0.68957,4.79087 0.68957,7.63559 0,6.3526 -3.42082,19.939167 -7.8275,28.796172 -0.20943,0.383948 -0.4276,0.767549 -0.63703,1.160225 l -3.31577,5.52383 c -0.53229,0.802803 -0.41009,2.015546 0.21819,2.888156 0.45376,0.628283 1.17809,1.082148 2.12051,1.082148 0,0 2.66121,3.350554 3.49891,9.799147 0.38395,2.931977 0.39275,6.51034 -0.40133,10.698872 l -6.28272,4.772971 -6.66728,5.061205 0.01,-107.724246 c 3.2025,-0.75917 6.84105,-1.57019 10.86379,-2.37299 3.12395,-0.62827 6.49217,-1.25719 10.06987,-1.86803 z m 160.269253,17.6595 -2.848751,2.18107 -6.061624,4.63798 z M 21.02441,-123.25564 V 39.406303 L -10.114838,63.009927 V -99.421431 l 0.0033,-0.0022 31.134862,-23.830569 z m -47.977816,4.15491 2.705001,8.32442 h 8.761514 l -7.086127,5.14877 2.705001,8.333186 -7.085389,-5.148036 -7.085389,5.148036 2.705001,-8.333186 -7.0854,-5.14877 h 8.760787 z m -126.956234,16.54451 2.705,8.324422 h 8.76152 l -7.08613,5.148768 2.705,8.333178 -7.08539,-5.148035 -7.08538,5.139281 2.705,-8.324424 -7.0854,-5.148768 h 8.76078 z m 112.651908,26.965353 V 86.61647 L -56.787948,98.38874 -72.39697,86.55664 V -51.758845 l -31.14362,23.831292 v 90.873266 l 20.282022,15.377715 -64.437672,-48.844702 c 0,-0.0022 -0.006,-0.0044 -0.007,-0.0066 l 13.01859,9.86409 V -4.0918816 l 31.14216,-23.8385884 31.142895,-23.831294 z m -46.883262,0.65308 2.713756,8.333182 h 8.752759 l -7.086116,5.148768 2.705728,8.324424 -7.086127,-5.14001 -7.085389,5.14001 2.713756,-8.324424 -7.094154,-5.148768 h 8.760786 z m -65.768646,47.304304 2.705,8.333182 h 8.76152 l -7.08613,5.148035 2.705,8.3251565 -7.08539,-5.1400135 -7.08538,5.1400135 2.705,-8.3251565 -7.0854,-5.148035 h 8.76078 z m 17.01151,25.235236 -9.43575,7.223308 -10.8127,8.270424 10.81123,-8.276991 z m -21.75675,16.648121 c 1.47254,4.233288 3.76068,8.125867 6.76068,11.40449 -3.00064,-3.276116 -5.28945,-7.169035 -6.76213,-11.403033 z M 40.471659,23.10479 c -0.11064,0.146229 -0.216718,0.295557 -0.329823,0.440008 -0.121441,0.154565 -0.247384,0.305782 -0.371418,0.458254 0.124579,-0.153567 0.251168,-0.305487 0.372878,-0.461173 0.112505,-0.143468 0.218296,-0.291853 0.328363,-0.437089 z m -3.118009,3.571153 c -0.997702,0.988096 -2.062907,1.916248 -3.19828,2.77651 -0.01752,0.0085 -0.02555,0.01767 -0.03429,0.02627 l -11.826992,8.965103 11.863474,-8.994293 c 1.130033,-0.859515 2.197047,-1.78643 3.196089,-2.773592 z"
       id="path280"
       inkscape:connector-curvature="0"
       inkscape:export-filename="C:\Users\suitedoalex\sites\atletico-madrid-logo-4.png"
       inkscape:export-xdpi="101.80452"
       inkscape:export-ydpi="101.80452" />
    <path
       id="path276"
       style="fill:#ce3524;fill-opacity:1;fill-rule:nonzero;stroke:none;stroke-width:8.72611237"
       d="M 47.202873,-15.114423 V -143.29228 l -7.076876,5.41891 -19.101458,14.61624 V 39.406325 l 13.132793,-9.956498 v 0 c 2.260067,-1.719037 4.267066,-3.708598 5.986118,-5.90758 4.502668,-5.741776 7.059423,-12.91464 7.059423,-20.340561 z m -57.317469,-84.309949 v 0 L -41.258085,-75.59336 V 86.61635 l 31.143489,-23.604143 z m -93.426114,71.496527 v 0 90.873735 l 31.143498,23.61285 V -51.758856 Z m -31.14349,23.834502 -11.64935,8.918087 -12.32127,9.4242 c 2.09425,6.021016 5.83776,11.352675 10.9338,15.20961 v 0 l 13.03682,9.877963 z"
       inkscape:connector-curvature="0"
       inkscape:export-filename="C:\Users\suitedoalex\sites\atletico-madrid-logo-4.png"
       inkscape:export-xdpi="101.80452"
       inkscape:export-ydpi="101.80452" />
  </g>
</svg>
